<svg width="337" height="95" viewBox="0 0 337 95" fill="none" xmlns="http://www.w3.org/2000/svg">
<rect x="0.39917" y="0.272949" width="336.464" height="94.6452" rx="23.6613" fill="black"/>
<rect x="33.9983" y="28.1933" width="50.1619" height="39.751" rx="2.83936" fill="url(#paint0_linear_10102_3)"/>
<path d="M82.0306 66.5246V34.1086C82.0306 32.5405 80.7594 31.2693 79.1912 31.2693H37.5474M84.1601 42.8633C83.2137 42.8633 81.5574 44.9928 81.5574 44.9928C81.5574 44.9928 78.2448 44.9928 76.1153 44.9928C73.2687 44.9928 71.7039 48.0657 71.8562 50.9081C72.0102 53.7819 73.9472 56.3502 76.8251 56.3502C78.718 56.3502 82.0306 55.6404 82.0306 55.6404C82.0306 55.6404 82.9771 54.4573 84.1601 54.4573" stroke="black" stroke-width="1.41968"/>
<path d="M52.2175 31.2693L74.4591 22.7512L77.5351 31.2693H52.2175Z" fill="url(#paint1_linear_10102_3)" stroke="black" stroke-width="1.41968"/>
<path d="M41.3333 31.0327L64.5213 13.9965L72.3296 23.461L53.1639 31.2693L41.3333 31.0327Z" fill="url(#paint2_linear_10102_3)" stroke="black" stroke-width="1.41968"/>
<circle cx="77.2984" cy="50.6715" r="1.65629" fill="black"/>
<circle cx="82.0306" cy="66.5246" r="0.709839" fill="black"/>
<circle cx="37.5475" cy="31.2693" r="0.709839" fill="black"/>
<path d="M100.588 65.3004L92.589 36.0464H96.1886L102.302 59.8724H102.588L108.816 36.0464H112.815L119.043 59.8724H119.329L125.443 36.0464H129.042L121.043 65.3004H117.386L110.93 41.9886H110.701L104.245 65.3004H100.588Z" fill="url(#paint3_linear_10102_3)"/>
<path d="M133.456 65.3004V36.0464H151.111V39.1889H136.998V49.0736H150.197V52.2161H136.998V62.1579H151.34V65.3004H133.456ZM159.553 43.3599L164.81 52.3304L170.066 43.3599H173.952L166.867 54.3301L173.952 65.3004H170.066L164.81 56.787L159.553 65.3004H155.668L162.639 54.3301L155.668 43.3599H159.553ZM178.762 73.5281V43.3599H182.019V46.8452H182.419C182.666 46.4643 183.009 45.9787 183.447 45.3883C183.895 44.7883 184.533 44.2551 185.361 43.7884C186.199 43.3123 187.332 43.0742 188.761 43.0742C190.608 43.0742 192.236 43.5361 193.646 44.4598C195.055 45.3835 196.155 46.6929 196.946 48.3879C197.736 50.083 198.131 52.0828 198.131 54.3873C198.131 56.7108 197.736 58.7249 196.946 60.4295C196.155 62.1245 195.06 63.4387 193.66 64.3719C192.26 65.2956 190.646 65.7575 188.818 65.7575C187.408 65.7575 186.28 65.5242 185.432 65.0576C184.585 64.5814 183.933 64.0434 183.476 63.4434C183.018 62.834 182.666 62.3293 182.419 61.9293H182.133V73.5281H178.762ZM182.076 54.3301C182.076 55.9871 182.319 57.4489 182.804 58.7154C183.29 59.9724 183.999 60.958 184.933 61.6722C185.866 62.3769 187.008 62.7292 188.361 62.7292C189.77 62.7292 190.946 62.3578 191.889 61.6151C192.841 60.8628 193.555 59.8534 194.032 58.5868C194.517 57.3108 194.76 55.8919 194.76 54.3301C194.76 52.7875 194.522 51.3971 194.046 50.1592C193.579 48.9117 192.87 47.9261 191.917 47.2023C190.975 46.4691 189.789 46.1025 188.361 46.1025C186.989 46.1025 185.837 46.45 184.904 47.1452C183.971 47.8309 183.266 48.7927 182.79 50.0306C182.314 51.2591 182.076 52.6922 182.076 54.3301ZM212.472 65.7575C210.358 65.7575 208.535 65.2909 207.002 64.3576C205.478 63.4149 204.302 62.1007 203.473 60.4152C202.654 58.7201 202.245 56.7489 202.245 54.5016C202.245 52.2542 202.654 50.2734 203.473 48.5593C204.302 46.8357 205.454 45.493 206.93 44.5312C208.416 43.5599 210.149 43.0742 212.13 43.0742C213.272 43.0742 214.401 43.2647 215.515 43.6456C216.629 44.0265 217.643 44.6455 218.557 45.5025C219.472 46.3501 220.2 47.4737 220.743 48.8736C221.286 50.2734 221.557 51.9971 221.557 54.0445V55.4729H204.645V52.5589H218.129C218.129 51.3209 217.881 50.2163 217.386 49.245C216.9 48.2737 216.205 47.5071 215.301 46.9452C214.406 46.3834 213.348 46.1025 212.13 46.1025C210.787 46.1025 209.625 46.4358 208.644 47.1024C207.673 47.7594 206.925 48.6165 206.402 49.6735C205.878 50.7305 205.616 51.8637 205.616 53.0731V55.0158C205.616 56.6727 205.902 58.0774 206.473 59.2296C207.054 60.3723 207.859 61.2437 208.887 61.8436C209.916 62.434 211.111 62.7292 212.472 62.7292C213.358 62.7292 214.158 62.6054 214.872 62.3578C215.596 62.1007 216.22 61.7198 216.743 61.2151C217.267 60.7009 217.672 60.0629 217.958 59.301L221.214 60.2152C220.871 61.3199 220.295 62.2912 219.486 63.1292C218.676 63.9577 217.677 64.6052 216.486 65.0718C215.296 65.5289 213.958 65.7575 212.472 65.7575ZM230.056 52.1018V65.3004H226.685V43.3599H229.942V46.7881H230.228C230.742 45.6739 231.523 44.7788 232.57 44.1027C233.618 43.417 234.97 43.0742 236.627 43.0742C238.112 43.0742 239.412 43.379 240.526 43.9884C241.641 44.5883 242.507 45.5025 243.126 46.731C243.745 47.9499 244.055 49.4926 244.055 51.359V65.3004H240.684V51.5876C240.684 49.864 240.236 48.5213 239.341 47.5595C238.446 46.5881 237.217 46.1025 235.656 46.1025C234.58 46.1025 233.618 46.3358 232.77 46.8024C231.932 47.269 231.27 47.9499 230.785 48.845C230.299 49.7402 230.056 50.8258 230.056 52.1018ZM265.756 48.2737L262.728 49.1307C262.537 48.626 262.256 48.1356 261.885 47.6594C261.523 47.1738 261.028 46.7738 260.399 46.4596C259.771 46.1453 258.966 45.9882 257.985 45.9882C256.643 45.9882 255.524 46.2977 254.629 46.9167C253.743 47.5261 253.3 48.3022 253.3 49.245C253.3 50.083 253.605 50.7448 254.214 51.2305C254.824 51.7161 255.776 52.1209 257.071 52.4446L260.328 53.2446C262.29 53.7207 263.751 54.4492 264.713 55.43C265.675 56.4014 266.156 57.6536 266.156 59.1868C266.156 60.4438 265.794 61.5675 265.07 62.5578C264.356 63.5482 263.356 64.3291 262.071 64.9004C260.785 65.4718 259.29 65.7575 257.585 65.7575C255.348 65.7575 253.495 65.2718 252.029 64.3005C250.562 63.3292 249.634 61.9103 249.243 60.0438L252.443 59.2439C252.748 60.4247 253.324 61.3103 254.171 61.9008C255.028 62.4912 256.147 62.7864 257.528 62.7864C259.099 62.7864 260.347 62.4531 261.271 61.7865C262.204 61.1104 262.671 60.3009 262.671 59.3582C262.671 58.5963 262.404 57.9583 261.871 57.4441C261.337 56.9203 260.518 56.5299 259.414 56.2728L255.757 55.4157C253.748 54.9396 252.272 54.2016 251.329 53.2017C250.396 52.1923 249.929 50.9305 249.929 49.4164C249.929 48.1784 250.277 47.0833 250.972 46.131C251.676 45.1788 252.634 44.4312 253.843 43.8884C255.062 43.3456 256.443 43.0742 257.985 43.0742C260.157 43.0742 261.861 43.5504 263.099 44.5026C264.347 45.4549 265.232 46.7119 265.756 48.2737ZM280.429 65.7575C278.315 65.7575 276.492 65.2909 274.958 64.3576C273.435 63.4149 272.259 62.1007 271.43 60.4152C270.611 58.7201 270.202 56.7489 270.202 54.5016C270.202 52.2542 270.611 50.2734 271.43 48.5593C272.259 46.8357 273.411 45.493 274.887 44.5312C276.373 43.5599 278.106 43.0742 280.086 43.0742C281.229 43.0742 282.358 43.2647 283.472 43.6456C284.586 44.0265 285.6 44.6455 286.514 45.5025C287.429 46.3501 288.157 47.4737 288.7 48.8736C289.243 50.2734 289.514 51.9971 289.514 54.0445V55.4729H272.602V52.5589H286.086C286.086 51.3209 285.838 50.2163 285.343 49.245C284.857 48.2737 284.162 47.5071 283.258 46.9452C282.362 46.3834 281.305 46.1025 280.086 46.1025C278.744 46.1025 277.582 46.4358 276.601 47.1024C275.63 47.7594 274.882 48.6165 274.359 49.6735C273.835 50.7305 273.573 51.8637 273.573 53.0731V55.0158C273.573 56.6727 273.859 58.0774 274.43 59.2296C275.011 60.3723 275.816 61.2437 276.844 61.8436C277.872 62.434 279.068 62.7292 280.429 62.7292C281.315 62.7292 282.115 62.6054 282.829 62.3578C283.553 62.1007 284.177 61.7198 284.7 61.2151C285.224 60.7009 285.629 60.0629 285.914 59.301L289.171 60.2152C288.828 61.3199 288.252 62.2912 287.443 63.1292C286.633 63.9577 285.634 64.6052 284.443 65.0718C283.253 65.5289 281.915 65.7575 280.429 65.7575ZM310.183 48.2737L307.155 49.1307C306.965 48.626 306.684 48.1356 306.312 47.6594C305.95 47.1738 305.455 46.7738 304.827 46.4596C304.198 46.1453 303.393 45.9882 302.413 45.9882C301.07 45.9882 299.951 46.2977 299.056 46.9167C298.17 47.5261 297.727 48.3022 297.727 49.245C297.727 50.083 298.032 50.7448 298.642 51.2305C299.251 51.7161 300.203 52.1209 301.498 52.4446L304.755 53.2446C306.717 53.7207 308.179 54.4492 309.14 55.43C310.102 56.4014 310.583 57.6536 310.583 59.1868C310.583 60.4438 310.221 61.5675 309.498 62.5578C308.783 63.5482 307.783 64.3291 306.498 64.9004C305.212 65.4718 303.717 65.7575 302.013 65.7575C299.775 65.7575 297.923 65.2718 296.456 64.3005C294.99 63.3292 294.061 61.9103 293.671 60.0438L296.87 59.2439C297.175 60.4247 297.751 61.3103 298.599 61.9008C299.456 62.4912 300.575 62.7864 301.956 62.7864C303.527 62.7864 304.774 62.4531 305.698 61.7865C306.631 61.1104 307.098 60.3009 307.098 59.3582C307.098 58.5963 306.831 57.9583 306.298 57.4441C305.765 56.9203 304.946 56.5299 303.841 56.2728L300.184 55.4157C298.175 54.9396 296.699 54.2016 295.756 53.2017C294.823 52.1923 294.356 50.9305 294.356 49.4164C294.356 48.1784 294.704 47.0833 295.399 46.131C296.104 45.1788 297.061 44.4312 298.27 43.8884C299.489 43.3456 300.87 43.0742 302.413 43.0742C304.584 43.0742 306.288 43.5504 307.526 44.5026C308.774 45.4549 309.659 46.7119 310.183 48.2737Z" fill="white"/>
<defs>
<linearGradient id="paint0_linear_10102_3" x1="59.0793" y1="28.1933" x2="59.0793" y2="67.9443" gradientUnits="userSpaceOnUse">
<stop stop-color="#FFD600"/>
<stop offset="0.635417" stop-color="#F98C29"/>
<stop offset="0.90625" stop-color="#FF2305"/>
<stop offset="1" stop-color="#8205FF"/>
</linearGradient>
<linearGradient id="paint1_linear_10102_3" x1="64.8763" y1="22.7512" x2="64.8763" y2="31.2693" gradientUnits="userSpaceOnUse">
<stop stop-color="#FFD600"/>
<stop offset="0.635417" stop-color="#F98C29"/>
<stop offset="0.90625" stop-color="#FF2305"/>
<stop offset="1" stop-color="#8205FF"/>
</linearGradient>
<linearGradient id="paint2_linear_10102_3" x1="56.8314" y1="13.9965" x2="56.8314" y2="31.2693" gradientUnits="userSpaceOnUse">
<stop stop-color="#FFD600"/>
<stop offset="0.635417" stop-color="#F98C29"/>
<stop offset="0.90625" stop-color="#FF2305"/>
<stop offset="1" stop-color="#8205FF"/>
</linearGradient>
<linearGradient id="paint3_linear_10102_3" x1="214.297" y1="26.3004" x2="214.297" y2="66.0514" gradientUnits="userSpaceOnUse">
<stop stop-color="#FFD600"/>
<stop offset="0.635417" stop-color="#F98C29"/>
<stop offset="0.90625" stop-color="#FF2305"/>
<stop offset="1" stop-color="#8205FF"/>
</linearGradient>
</defs>
</svg>
