<svg width="279" height="62" viewBox="0 0 279 62" fill="none" xmlns="http://www.w3.org/2000/svg">
<rect x="0.234904" y="15.7574" width="49.6887" height="39.2778" rx="2.60274" fill="url(#paint0_linear_10102_5)" stroke="black" stroke-width="0.473226"/>
<path d="M48.0306 53.852V21.436C48.0306 19.8679 46.7594 18.5967 45.1912 18.5967H3.54736M50.1601 30.1907C49.2137 30.1907 47.5574 32.3202 47.5574 32.3202C47.5574 32.3202 44.2448 32.3202 42.1153 32.3202C39.2687 32.3202 37.7039 35.3931 37.8562 38.2356C38.0102 41.1093 39.9472 43.6777 42.8251 43.6777C44.718 43.6777 48.0306 42.9678 48.0306 42.9678C48.0306 42.9678 48.9771 41.7848 50.1601 41.7848" stroke="black" stroke-width="1.41968"/>
<path d="M18.2175 18.5967L40.4591 10.0786L43.5351 18.5967H18.2175Z" fill="url(#paint1_linear_10102_5)" stroke="black" stroke-width="1.41968"/>
<path d="M7.33325 18.3601L30.5213 1.32397L38.3296 10.7885L19.1639 18.5967L7.33325 18.3601Z" fill="url(#paint2_linear_10102_5)" stroke="black" stroke-width="1.41968"/>
<circle cx="43.2984" cy="37.999" r="1.65629" fill="black"/>
<circle cx="48.0306" cy="53.8521" r="0.709839" fill="black"/>
<circle cx="3.54749" cy="18.5967" r="0.709839" fill="black"/>
<path d="M66.8562 53L58.857 23.746H62.4567L68.5703 47.572H68.856L75.0839 23.746H79.0834L85.3113 47.572H85.597L91.7106 23.746H95.3102L87.3111 53H83.6544L77.1979 29.6882H76.9694L70.5129 53H66.8562Z" fill="url(#paint3_linear_10102_5)"/>
<path d="M99.724 53V23.746H117.379V26.8885H103.267V36.7732H116.465V39.9157H103.267V49.8575H117.608V53H99.724ZM125.821 31.0595L131.078 40.03L136.334 31.0595H140.22L133.135 42.0298L140.22 53H136.334L131.078 44.4866L125.821 53H121.936L128.907 42.0298L121.936 31.0595H125.821ZM145.03 61.2277V31.0595H148.287V34.5449H148.687C148.934 34.1639 149.277 33.6783 149.715 33.0879C150.163 32.4879 150.801 31.9547 151.629 31.488C152.467 31.0119 153.6 30.7738 155.029 30.7738C156.876 30.7738 158.505 31.2357 159.914 32.1594C161.323 33.0831 162.423 34.3925 163.214 36.0875C164.004 37.7826 164.399 39.7824 164.399 42.0869C164.399 44.4105 164.004 46.4245 163.214 48.1291C162.423 49.8242 161.328 51.1383 159.928 52.0715C158.528 52.9952 156.914 53.4571 155.086 53.4571C153.677 53.4571 152.548 53.2238 151.701 52.7572C150.853 52.281 150.201 51.743 149.744 51.1431C149.287 50.5336 148.934 50.0289 148.687 49.6289H148.401V61.2277H145.03ZM148.344 42.0298C148.344 43.6867 148.587 45.1485 149.072 46.415C149.558 47.672 150.267 48.6576 151.201 49.3718C152.134 50.0765 153.277 50.4289 154.629 50.4289C156.038 50.4289 157.214 50.0575 158.157 49.3147C159.109 48.5624 159.823 47.553 160.3 46.2864C160.785 45.0104 161.028 43.5915 161.028 42.0298C161.028 40.4871 160.79 39.0967 160.314 37.8588C159.847 36.6113 159.138 35.6257 158.186 34.902C157.243 34.1687 156.057 33.8021 154.629 33.8021C153.258 33.8021 152.105 34.1497 151.172 34.8448C150.239 35.5305 149.534 36.4923 149.058 37.7302C148.582 38.9587 148.344 40.3918 148.344 42.0298ZM178.74 53.4571C176.626 53.4571 174.803 52.9905 173.27 52.0572C171.746 51.1145 170.57 49.8003 169.741 48.1148C168.922 46.4198 168.513 44.4485 168.513 42.2012C168.513 39.9538 168.922 37.9731 169.741 36.259C170.57 34.5353 171.722 33.1926 173.198 32.2308C174.684 31.2595 176.417 30.7738 178.398 30.7738C179.54 30.7738 180.669 30.9643 181.783 31.3452C182.897 31.7261 183.911 32.3451 184.826 33.2021C185.74 34.0497 186.468 35.1734 187.011 36.5732C187.554 37.9731 187.825 39.6967 187.825 41.7441V43.1725H170.913V40.2585H184.397C184.397 39.0206 184.149 37.9159 183.654 36.9446C183.169 35.9733 182.473 35.2067 181.569 34.6448C180.674 34.083 179.617 33.8021 178.398 33.8021C177.055 33.8021 175.893 34.1354 174.912 34.802C173.941 35.459 173.193 36.3161 172.67 37.3731C172.146 38.4302 171.884 39.5634 171.884 40.7728V42.7154C171.884 44.3724 172.17 45.777 172.741 46.9292C173.322 48.072 174.127 48.9433 175.155 49.5432C176.184 50.1336 177.379 50.4289 178.74 50.4289C179.626 50.4289 180.426 50.3051 181.14 50.0575C181.864 49.8003 182.488 49.4194 183.011 48.9147C183.535 48.4005 183.94 47.7625 184.226 47.0007L187.482 47.9148C187.14 49.0195 186.563 49.9908 185.754 50.8288C184.945 51.6573 183.945 52.3048 182.754 52.7715C181.564 53.2285 180.226 53.4571 178.74 53.4571ZM196.324 39.8014V53H192.953V31.0595H196.21V34.4877H196.496C197.01 33.3736 197.791 32.4784 198.838 31.8023C199.886 31.1167 201.238 30.7738 202.895 30.7738C204.381 30.7738 205.68 31.0786 206.795 31.688C207.909 32.288 208.775 33.2021 209.394 34.4306C210.013 35.6495 210.323 37.1922 210.323 39.0587V53H206.952V39.2872C206.952 37.5636 206.504 36.2209 205.609 35.2591C204.714 34.2877 203.485 33.8021 201.924 33.8021C200.848 33.8021 199.886 34.0354 199.038 34.502C198.2 34.9686 197.538 35.6495 197.053 36.5446C196.567 37.4398 196.324 38.5254 196.324 39.8014ZM232.024 35.9733L228.996 36.8303C228.805 36.3256 228.524 35.8352 228.153 35.3591C227.791 34.8734 227.296 34.4734 226.667 34.1592C226.039 33.8449 225.234 33.6878 224.253 33.6878C222.911 33.6878 221.792 33.9973 220.897 34.6163C220.011 35.2257 219.568 36.0018 219.568 36.9446C219.568 37.7826 219.873 38.4444 220.482 38.9301C221.092 39.4158 222.044 39.8205 223.339 40.1443L226.596 40.9442C228.558 41.4203 230.019 42.1488 230.981 43.1296C231.943 44.101 232.424 45.3532 232.424 46.8864C232.424 48.1434 232.062 49.2671 231.338 50.2574C230.624 51.2478 229.624 52.0287 228.339 52.6C227.053 53.1714 225.558 53.4571 223.853 53.4571C221.616 53.4571 219.763 52.9714 218.297 52.0001C216.83 51.0288 215.902 49.6099 215.511 47.7434L218.711 46.9435C219.016 48.1243 219.592 49.01 220.44 49.6004C221.297 50.1908 222.415 50.486 223.796 50.486C225.368 50.486 226.615 50.1527 227.539 49.4861C228.472 48.81 228.939 48.0005 228.939 47.0578C228.939 46.296 228.672 45.6579 228.139 45.1437C227.605 44.62 226.786 44.2295 225.682 43.9724L222.025 43.1154C220.016 42.6392 218.54 41.9012 217.597 40.9013C216.664 39.8919 216.197 38.6301 216.197 37.116C216.197 35.878 216.545 34.7829 217.24 33.8307C217.945 32.8784 218.902 32.1308 220.111 31.588C221.33 31.0452 222.711 30.7738 224.253 30.7738C226.425 30.7738 228.129 31.25 229.367 32.2023C230.615 33.1545 231.5 34.4115 232.024 35.9733ZM246.697 53.4571C244.583 53.4571 242.76 52.9905 241.227 52.0572C239.703 51.1145 238.527 49.8003 237.698 48.1148C236.879 46.4198 236.47 44.4485 236.47 42.2012C236.47 39.9538 236.879 37.9731 237.698 36.259C238.527 34.5353 239.679 33.1926 241.155 32.2308C242.641 31.2595 244.374 30.7738 246.355 30.7738C247.497 30.7738 248.626 30.9643 249.74 31.3452C250.854 31.7261 251.868 32.3451 252.782 33.2021C253.697 34.0497 254.425 35.1734 254.968 36.5732C255.511 37.9731 255.782 39.6967 255.782 41.7441V43.1725H238.87V40.2585H252.354C252.354 39.0206 252.106 37.9159 251.611 36.9446C251.125 35.9733 250.43 35.2067 249.526 34.6448C248.63 34.083 247.573 33.8021 246.355 33.8021C245.012 33.8021 243.85 34.1354 242.869 34.802C241.898 35.459 241.15 36.3161 240.627 37.3731C240.103 38.4302 239.841 39.5634 239.841 40.7728V42.7154C239.841 44.3724 240.127 45.777 240.698 46.9292C241.279 48.072 242.084 48.9433 243.112 49.5432C244.141 50.1336 245.336 50.4289 246.697 50.4289C247.583 50.4289 248.383 50.3051 249.097 50.0575C249.821 49.8003 250.445 49.4194 250.968 48.9147C251.492 48.4005 251.897 47.7625 252.182 47.0007L255.439 47.9148C255.096 49.0195 254.52 49.9908 253.711 50.8288C252.901 51.6573 251.902 52.3048 250.711 52.7715C249.521 53.2285 248.183 53.4571 246.697 53.4571ZM276.451 35.9733L273.423 36.8303C273.233 36.3256 272.952 35.8352 272.58 35.3591C272.218 34.8734 271.723 34.4734 271.095 34.1592C270.466 33.8449 269.662 33.6878 268.681 33.6878C267.338 33.6878 266.219 33.9973 265.324 34.6163C264.438 35.2257 263.995 36.0018 263.995 36.9446C263.995 37.7826 264.3 38.4444 264.91 38.9301C265.519 39.4158 266.471 39.8205 267.767 40.1443L271.023 40.9442C272.985 41.4203 274.447 42.1488 275.409 43.1296C276.37 44.101 276.851 45.3532 276.851 46.8864C276.851 48.1434 276.489 49.2671 275.766 50.2574C275.051 51.2478 274.052 52.0287 272.766 52.6C271.48 53.1714 269.985 53.4571 268.281 53.4571C266.043 53.4571 264.191 52.9714 262.724 52.0001C261.258 51.0288 260.329 49.6099 259.939 47.7434L263.138 46.9435C263.443 48.1243 264.019 49.01 264.867 49.6004C265.724 50.1908 266.843 50.486 268.224 50.486C269.795 50.486 271.042 50.1527 271.966 49.4861C272.899 48.81 273.366 48.0005 273.366 47.0578C273.366 46.296 273.099 45.6579 272.566 45.1437C272.033 44.62 271.214 44.2295 270.109 43.9724L266.452 43.1154C264.443 42.6392 262.967 41.9012 262.024 40.9013C261.091 39.8919 260.624 38.6301 260.624 37.116C260.624 35.878 260.972 34.7829 261.667 33.8307C262.372 32.8784 263.329 32.1308 264.538 31.588C265.757 31.0452 267.138 30.7738 268.681 30.7738C270.852 30.7738 272.556 31.25 273.794 32.2023C275.042 33.1545 275.928 34.4115 276.451 35.9733Z" fill="white"/>
<defs>
<linearGradient id="paint0_linear_10102_5" x1="25.0793" y1="15.5208" x2="25.0793" y2="55.2717" gradientUnits="userSpaceOnUse">
<stop stop-color="#FFD600"/>
<stop offset="0.635417" stop-color="#F98C29"/>
<stop offset="0.90625" stop-color="#FF2305"/>
<stop offset="1" stop-color="#8205FF"/>
</linearGradient>
<linearGradient id="paint1_linear_10102_5" x1="30.8763" y1="10.0786" x2="30.8763" y2="18.5967" gradientUnits="userSpaceOnUse">
<stop stop-color="#FFD600"/>
<stop offset="0.635417" stop-color="#F98C29"/>
<stop offset="0.90625" stop-color="#FF2305"/>
<stop offset="1" stop-color="#8205FF"/>
</linearGradient>
<linearGradient id="paint2_linear_10102_5" x1="22.8314" y1="1.32397" x2="22.8314" y2="18.5967" gradientUnits="userSpaceOnUse">
<stop stop-color="#FFD600"/>
<stop offset="0.635417" stop-color="#F98C29"/>
<stop offset="0.90625" stop-color="#FF2305"/>
<stop offset="1" stop-color="#8205FF"/>
</linearGradient>
<linearGradient id="paint3_linear_10102_5" x1="168.5" y1="14" x2="168.5" y2="53" gradientUnits="userSpaceOnUse">
<stop stop-color="#FFD600"/>
<stop offset="0.635417" stop-color="#F98C29"/>
<stop offset="0.90625" stop-color="#FF2305"/>
<stop offset="1" stop-color="#8205FF"/>
</linearGradient>
</defs>
</svg>
